<svg width="202.8" height="75.024" viewBox="0 0 202.8 75.024" xmlns="http://www.w3.org/2000/svg"><g id="svgGroup" stroke-linecap="round" fill-rule="nonzero" font-size="9pt" stroke="#710404" stroke-width="2" fill="#710404" style="stroke:#710404;stroke-width:2;fill:#710404"><path d="M 135.525 55.524 Q 132.9 55.524 131.588 54.174 Q 130.275 52.824 130.275 50.724 Q 130.275 49.149 130.838 47.424 Q 131.4 45.699 131.925 43.862 Q 132.45 42.024 132.45 40.299 Q 132.45 38.199 131.588 37.412 Q 130.725 36.624 129.45 36.624 Q 127.125 36.624 124.725 38.537 Q 122.325 40.449 120.075 43.412 Q 117.825 46.374 115.875 49.524 Q 113.925 52.674 112.425 55.149 Q 111.225 55.149 110.138 54.737 A 3.6 3.6 0 0 1 108.45 53.499 A 8.409 8.409 0 0 1 109.053 51.637 A 53.595 53.595 0 0 1 109.238 51.174 Q 110.025 49.224 111.075 46.374 Q 112.125 43.524 112.95 40.524 Q 113.775 37.524 113.775 35.049 Q 114.225 34.524 115.2 33.999 Q 116.175 33.474 117.225 33.474 Q 119.25 33.474 119.25 35.424 A 17.089 17.089 0 0 1 118.733 38.759 A 53.293 53.293 0 0 1 118.575 39.437 Q 117.9 42.249 116.85 45.324 Q 118.875 42.249 121.388 39.212 Q 123.9 36.174 126.75 34.149 Q 129.6 32.124 132.45 32.124 Q 135.375 32.124 136.688 34.224 Q 138 36.324 138 38.874 Q 138 41.199 137.25 43.187 Q 136.5 45.174 135.713 47.012 Q 134.925 48.849 134.925 50.724 Q 134.925 52.299 135.563 52.937 Q 136.2 53.574 137.175 53.574 Q 139.05 53.574 140.925 51.812 Q 142.8 50.049 144.563 47.349 A 50.165 50.165 0 0 0 145.416 46 A 15.351 15.351 0 0 1 147.263 39.999 Q 149.175 36.474 152.25 33.774 Q 155.325 31.074 158.775 29.537 Q 162.225 27.999 165.225 27.999 A 5.238 5.238 0 0 1 168.338 28.712 Q 169.275 29.424 169.275 30.399 Q 169.275 31.074 168.9 31.449 Q 168.525 31.824 168.375 31.899 Q 168 31.299 167.25 31.037 Q 166.5 30.774 165.375 30.774 Q 162.45 30.774 159.713 32.499 Q 156.975 34.224 154.875 36.924 Q 152.775 39.624 151.538 42.512 Q 150.3 45.399 150.3 47.799 Q 150.3 49.599 151.013 50.537 Q 151.725 51.474 152.925 51.474 A 6.923 6.923 0 0 0 157.029 49.568 A 19.59 19.59 0 0 0 158.138 48.587 Q 161.175 45.699 164.025 41.574 Q 164.25 40.524 164.438 39.699 Q 164.625 38.874 164.925 37.599 Q 165.15 36.549 166.013 35.162 A 2.985 2.985 0 0 1 168.75 33.774 Q 169.125 33.774 169.5 33.812 Q 169.875 33.849 170.325 33.999 A 17.053 17.053 0 0 1 169.924 36.917 A 63.322 63.322 0 0 1 169.612 38.387 Q 168.9 41.574 167.588 45.812 Q 166.275 50.049 164.55 54.549 Q 167.025 53.349 169.388 51.474 Q 171.75 49.599 173.7 47.162 A 20.436 20.436 0 0 0 174.649 45.881 A 17.382 17.382 0 0 1 176.063 41.499 Q 177.75 37.749 180.563 34.449 Q 183.375 31.149 186.75 29.087 Q 190.125 27.024 193.425 27.024 Q 195.15 27.024 196.613 27.924 Q 198.075 28.824 198.075 31.599 Q 198.075 34.449 196.388 36.962 Q 194.7 39.474 191.963 41.424 Q 189.225 43.374 185.963 44.612 Q 182.7 45.849 179.475 46.149 Q 179.325 46.899 179.25 47.574 Q 179.175 48.249 179.175 48.849 Q 179.175 49.974 179.438 51.099 Q 179.7 52.224 180.375 53.162 Q 181.05 54.099 182.213 54.624 Q 183.375 55.149 185.1 55.149 Q 188.325 55.149 191.475 53.312 Q 194.625 51.474 197.325 48.474 Q 200.025 45.474 201.9 41.874 L 202.8 42.549 Q 200.775 47.049 197.663 50.349 Q 194.55 53.649 190.913 55.487 Q 187.275 57.324 183.525 57.324 Q 178.95 57.324 176.663 54.812 Q 174.375 52.299 174.375 48.624 A 17.382 17.382 0 0 1 174.377 48.517 A 17.476 17.476 0 0 1 174.15 48.774 Q 171.675 51.549 168.863 53.574 Q 166.05 55.599 163.725 56.724 Q 161.625 61.749 159.3 65.912 Q 156.975 70.074 154.463 72.549 Q 151.95 75.024 149.1 75.024 Q 147.45 75.024 146.1 74.012 Q 144.75 72.999 144.75 70.674 Q 144.75 68.424 146.138 66.512 Q 147.525 64.599 149.7 62.987 Q 151.875 61.374 154.463 60.024 Q 157.05 58.674 159.375 57.474 Q 160.425 54.849 161.363 51.812 Q 162.3 48.774 163.2 45.099 Q 160.35 49.224 157.238 51.962 Q 154.125 54.699 150.975 54.699 Q 148.275 54.699 146.813 52.674 A 8.756 8.756 0 0 1 145.391 48.744 A 38.125 38.125 0 0 1 144.975 49.374 Q 143.025 52.224 140.7 53.874 Q 138.375 55.524 135.525 55.524 Z M 179.85 44.724 Q 181.875 44.049 184.425 42.737 Q 186.975 41.424 189.338 39.624 Q 191.7 37.824 193.238 35.649 Q 194.775 33.474 194.775 31.074 Q 194.775 30.249 194.475 29.799 Q 194.175 29.349 193.2 29.349 Q 191.4 29.349 189.375 30.737 Q 187.35 32.124 185.475 34.374 Q 183.6 36.624 182.1 39.324 Q 180.6 42.024 179.85 44.724 Z M 148.875 72.624 A 4.674 4.674 0 0 0 151.665 71.026 A 20.006 20.006 0 0 0 152.963 69.662 A 24.79 24.79 0 0 0 156.004 64.988 A 67.64 67.64 0 0 0 158.55 59.499 Q 155.55 60.999 152.963 62.612 Q 150.375 64.224 148.725 66.024 Q 147.075 67.824 147.075 69.999 Q 147.075 71.199 147.6 71.912 Q 148.125 72.624 148.875 72.624 Z M 13.95 32.199 L 6.675 55.749 Q 6.15 57.474 5.025 58.187 Q 3.9 58.899 2.588 59.049 Q 1.275 59.199 0 59.199 Q 0.975 57.099 1.988 54.399 Q 3 51.699 4.388 47.874 A 524.298 524.298 0 0 0 7.189 39.917 A 862.807 862.807 0 0 0 7.65 38.574 A 5436.666 5436.666 0 0 0 10.863 29.159 A 8735.635 8735.635 0 0 0 12.113 25.487 Q 14.7 17.874 18.225 7.599 Q 18.45 6.999 18.825 5.912 Q 19.2 4.824 19.2 3.924 Q 19.2 3.099 18.825 2.612 Q 18.45 2.124 17.4 2.124 Q 15.6 2.124 13.913 3.587 Q 12.225 5.049 10.913 7.299 Q 9.6 9.549 8.85 11.949 Q 8.1 14.349 8.1 16.224 Q 8.1 17.649 8.475 18.774 Q 6 18.774 4.988 17.537 Q 3.975 16.299 3.975 14.499 Q 3.975 11.949 5.475 9.399 Q 6.975 6.849 9.338 4.712 Q 11.7 2.574 14.288 1.299 Q 16.875 0.024 18.975 0.024 Q 21 0.024 21.713 1.149 Q 22.425 2.274 22.425 3.624 Q 22.425 4.449 22.238 5.274 Q 22.05 6.099 21.825 6.849 L 15.525 27.249 Q 16.575 25.749 18.263 24.474 Q 19.95 23.199 21.975 21.549 Q 25.35 18.849 29.213 15.249 Q 33.075 11.649 36.6 7.674 Q 40.125 3.699 42.45 0.024 Q 42.825 0.474 42.975 1.599 Q 43.125 2.724 43.125 3.324 Q 43.125 5.649 41.213 8.424 Q 39.3 11.199 36.225 14.162 Q 33.15 17.124 29.475 20.012 Q 25.8 22.899 22.238 25.449 Q 18.675 27.999 15.825 29.874 Q 18.075 33.699 20.213 37.149 Q 22.35 40.599 24.863 43.899 Q 27.375 47.199 30.75 50.649 A 105.475 105.475 0 0 0 38.626 57.826 A 152.338 152.338 0 0 0 38.925 58.074 Q 38.4 59.049 37.275 59.799 Q 36.15 60.549 34.875 60.549 A 6.149 6.149 0 0 1 31.084 58.63 A 15.42 15.42 0 0 1 31.05 58.599 Q 28.875 56.649 26.438 53.424 Q 24 50.199 21.638 46.412 Q 19.275 42.624 17.288 38.874 Q 15.3 35.124 13.95 32.199 Z M 75.45 60.624 Q 75.75 57.849 77.438 56.612 Q 79.125 55.374 81.825 54.999 Q 84.525 54.624 87.675 54.624 Q 89.025 51.699 90.375 47.462 Q 91.725 43.224 92.963 38.349 Q 94.2 33.474 95.4 28.412 Q 96.6 23.349 97.65 18.699 Q 98.7 14.049 99.638 10.337 A 83.581 83.581 0 0 1 101.135 5.017 A 36.869 36.869 0 0 1 101.325 4.449 Q 97.425 4.524 94.688 4.674 Q 91.95 4.824 89.588 5.124 Q 87.225 5.424 84.45 5.949 Q 84.975 3.099 88.575 1.637 Q 92.175 0.174 99.75 0.174 Q 103.5 0.174 107.363 0.474 Q 111.225 0.774 114.45 1.112 Q 117.675 1.449 119.4 1.749 Q 117.6 3.549 115.613 3.962 Q 113.625 4.374 112.125 4.374 L 107.738 4.374 Q 105.675 4.374 103.95 4.449 Q 103.65 6.024 103.05 9.362 Q 102.45 12.699 101.625 17.012 Q 100.8 21.324 99.9 25.937 Q 99 30.549 98.138 34.712 Q 97.275 38.874 96.525 41.874 Q 95.325 46.674 93.825 49.974 Q 92.325 53.274 90.225 54.699 Q 94.125 54.924 98.55 55.487 Q 102.975 56.049 106.5 56.124 Q 104.325 58.299 101.963 58.824 Q 99.6 59.349 98.025 59.349 Q 95.025 59.349 92.138 59.387 Q 89.25 59.424 86.438 59.499 Q 83.625 59.574 80.888 59.837 Q 78.15 60.099 75.45 60.624 Z M 44.7 43.224 Q 45.15 42.099 46.388 41.387 Q 47.625 40.674 49.5 40.262 Q 51.375 39.849 53.775 39.699 Q 56.175 39.549 58.875 39.549 Q 60.9 39.549 62.775 39.624 Q 64.65 39.699 66.338 39.812 Q 68.025 39.924 69.338 40.037 Q 70.65 40.149 71.475 40.224 Q 68.55 42.099 65.963 42.249 Q 63.375 42.399 60.75 42.399 L 56.738 42.399 L 53.175 42.399 Q 51.9 42.399 50.55 42.512 Q 49.2 42.624 47.775 42.774 Q 46.35 42.924 44.7 43.224 Z"/></g></svg>